<svg width="180" height="60" fill="none" xmlns="http://www.w3.org/2000/svg"><path d="M165.666 0H14.342c-.551 0-1.096 0-1.647.003-.46.003-.917.012-1.382.02-1.01.011-2.018.1-3.014.264-.995.168-1.96.486-2.86.94-.899.46-1.72 1.056-2.434 1.769a9.389 9.389 0 0 0-1.773 2.431 9.882 9.882 0 0 0-.94 2.855 19.437 19.437 0 0 0-.27 3.003c-.013.46-.015.922-.022 1.382v34.671c.007.466.009.917.023 1.383.012 1.006.102 2.01.27 3.003a9.86 9.86 0 0 0 .94 2.856 9.313 9.313 0 0 0 1.772 2.422A9.435 9.435 0 0 0 5.44 58.77c.9.456 1.864.775 2.859.946.997.163 2.004.252 3.014.265.465.01.922.016 1.382.016.55.003 1.096.003 1.647.003h151.324c.541 0 1.09 0 1.63-.003.459 0 .929-.006 1.387-.016a20.03 20.03 0 0 0 3.009-.265c.998-.172 1.965-.49 2.87-.946a9.452 9.452 0 0 0 2.433-1.768 9.587 9.587 0 0 0 1.777-2.422c.454-.9.768-1.862.931-2.856.168-.993.261-1.997.279-3.003.006-.466.006-.917.006-1.383.012-.545.012-1.087.012-1.64V14.303c0-.549 0-1.094-.012-1.637 0-.46 0-.922-.006-1.382a20.155 20.155 0 0 0-.279-3.003 9.885 9.885 0 0 0-.931-2.855 9.716 9.716 0 0 0-4.21-4.2 10.206 10.206 0 0 0-2.87-.94 19.69 19.69 0 0 0-3.009-.265c-.458-.007-.928-.016-1.387-.019-.54-.003-1.089-.003-1.63-.003Z" fill="#A6A6A6"/><path d="M12.703 58.688c-.458 0-.906-.006-1.36-.017a19.136 19.136 0 0 1-2.812-.244 8.866 8.866 0 0 1-2.492-.822 8.128 8.128 0 0 1-2.102-1.525 7.98 7.98 0 0 1-1.535-2.095 8.566 8.566 0 0 1-.816-2.486 18.57 18.57 0 0 1-.25-2.812c-.01-.316-.023-1.37-.023-1.37v-34.65s.013-1.038.022-1.342c.012-.941.095-1.88.25-2.808.143-.868.418-1.709.817-2.494a8.061 8.061 0 0 1 1.527-2.096 8.37 8.37 0 0 1 2.11-1.534 8.776 8.776 0 0 1 2.486-.816 18.981 18.981 0 0 1 2.821-.246l1.357-.018H167.29l1.374.019c.936.01 1.871.092 2.795.243a8.945 8.945 0 0 1 2.513.822 8.397 8.397 0 0 1 3.633 3.63c.392.78.663 1.613.805 2.473.156.936.244 1.883.262 2.831.004.425.004.881.004 1.335.012.563.012 1.098.012 1.638v31.393c0 .545 0 1.077-.012 1.613 0 .488 0 .935-.006 1.395-.017.931-.103 1.86-.257 2.78a8.579 8.579 0 0 1-.812 2.505 8.226 8.226 0 0 1-1.528 2.078 8.128 8.128 0 0 1-2.105 1.534 8.835 8.835 0 0 1-2.509.825c-.93.151-1.87.233-2.812.244-.44.01-.902.017-1.35.017l-1.63.002-152.963-.002Z" fill="#000"/><path d="M37.258 30.451c.016-1.252.35-2.48.969-3.569a7.433 7.433 0 0 1 2.575-2.66 7.613 7.613 0 0 0-6.003-3.236c-2.526-.264-4.975 1.508-6.262 1.508-1.312 0-3.294-1.481-5.428-1.438a8.013 8.013 0 0 0-3.905 1.162 7.984 7.984 0 0 0-2.823 2.93c-2.91 5.023-.74 12.404 2.047 16.464 1.395 1.988 3.024 4.209 5.156 4.13 2.087-.086 2.866-1.326 5.384-1.326 2.495 0 3.227 1.326 5.402 1.276 2.239-.036 3.65-1.997 4.995-4.004a16.423 16.423 0 0 0 2.284-4.638 7.189 7.189 0 0 1-3.192-2.64 7.158 7.158 0 0 1-1.2-3.959ZM33.149 18.317a7.295 7.295 0 0 0 1.676-5.236A7.464 7.464 0 0 0 30 15.57a6.95 6.95 0 0 0-1.72 5.042 6.182 6.182 0 0 0 4.869-2.295ZM63.632 40.71h-7.12l-1.71 5.034h-3.016l6.744-18.627h3.133l6.744 18.627H65.34L63.63 40.71Zm-6.383-2.324h5.644l-2.782-8.17h-.078l-2.784 8.17ZM82.972 38.955c0 4.22-2.265 6.931-5.684 6.931a4.627 4.627 0 0 1-4.284-2.376h-.065v6.727h-2.796V32.164h2.706v2.258h.052a4.842 4.842 0 0 1 4.336-2.4c3.456 0 5.735 2.724 5.735 6.933Zm-2.873 0c0-2.75-1.425-4.557-3.6-4.557-2.135 0-3.572 1.845-3.572 4.557 0 2.736 1.437 4.569 3.573 4.569 2.174 0 3.599-1.795 3.599-4.57ZM97.961 38.955c0 4.22-2.265 6.931-5.683 6.931a4.627 4.627 0 0 1-4.285-2.376h-.065v6.727h-2.795V32.164h2.705v2.258h.052a4.842 4.842 0 0 1 4.336-2.4c3.457 0 5.735 2.724 5.735 6.933Zm-2.873 0c0-2.75-1.425-4.557-3.6-4.557-2.135 0-3.572 1.845-3.572 4.557 0 2.736 1.437 4.569 3.573 4.569 2.174 0 3.599-1.795 3.599-4.57ZM107.868 40.554c.207 1.847 2.006 3.06 4.465 3.06 2.357 0 4.052-1.213 4.052-2.878 0-1.446-1.023-2.312-3.444-2.905l-2.42-.582c-3.43-.826-5.023-2.425-5.023-5.021 0-3.214 2.809-5.421 6.797-5.421 3.947 0 6.653 2.207 6.744 5.421h-2.822c-.169-1.859-1.71-2.98-3.962-2.98-2.251 0-3.792 1.134-3.792 2.787 0 1.317.984 2.092 3.391 2.685l2.058.504c3.833.903 5.425 2.439 5.425 5.163 0 3.485-2.783 5.668-7.211 5.668-4.142 0-6.939-2.132-7.12-5.5h2.862ZM125.37 28.95v3.214h2.59v2.207h-2.59v7.487c0 1.163.519 1.705 1.657 1.705.308-.005.615-.027.92-.065v2.195a7.694 7.694 0 0 1-1.553.129c-2.757 0-3.832-1.033-3.832-3.667v-7.784h-1.981v-2.207h1.981V28.95h2.808ZM129.46 38.955c0-4.273 2.524-6.958 6.459-6.958 3.948 0 6.46 2.685 6.46 6.958 0 4.284-2.498 6.958-6.46 6.958-3.96 0-6.459-2.674-6.459-6.958Zm10.071 0c0-2.932-1.347-4.661-3.612-4.661s-3.611 1.743-3.611 4.66c0 2.944 1.346 4.66 3.611 4.66s3.612-1.716 3.612-4.66ZM144.684 32.163h2.666v2.312h.065c.18-.722.604-1.36 1.201-1.807a3.255 3.255 0 0 1 2.075-.647c.322 0 .643.034.958.104v2.608a3.92 3.92 0 0 0-1.256-.169 2.824 2.824 0 0 0-2.178.895 2.815 2.815 0 0 0-.735 2.23v8.055h-2.796v-13.58ZM164.537 41.755c-.376 2.466-2.784 4.158-5.864 4.158-3.962 0-6.421-2.647-6.421-6.894 0-4.26 2.472-7.022 6.303-7.022 3.768 0 6.138 2.58 6.138 6.698v.955h-9.619v.169a3.53 3.53 0 0 0 2.194 3.587c.466.19.967.278 1.47.26a3.078 3.078 0 0 0 3.145-1.91h2.654Zm-9.45-4.053h6.809a3.25 3.25 0 0 0-.915-2.451 3.274 3.274 0 0 0-2.426-.996 3.453 3.453 0 0 0-3.206 2.124c-.174.42-.263.87-.262 1.323Z" fill="#fff"/></svg>