<svg width="64" height="64" viewBox="0 0 64 64" fill="none" xmlns="http://www.w3.org/2000/svg">
<rect width="64" height="64" fill="#FF9209"/>
<g clip-path="url(#clip0_1_133)">
<path d="M22.9643 39.3525L23.8919 36.7108H29.4977L30.4253 39.3525H33.4098L28.3483 25.4688H25.0614L20 39.3525H22.9643ZM28.7315 34.4862H24.6581L26.6948 28.6864L28.7315 34.4862ZM38.2206 39.5312C39.054 39.5312 39.7901 39.3624 40.4286 39.0248C41.0672 38.6871 41.568 38.2601 41.9309 37.7436V39.3525H44.7742V28.3488H41.9309V29.9179C41.5545 29.4147 41.0537 28.9976 40.4286 28.6666C39.8035 28.3355 39.0742 28.17 38.2407 28.17C37.2862 28.17 36.4225 28.4017 35.6495 28.8652C34.8765 29.3287 34.2648 29.9907 33.8145 30.8514C33.3641 31.7121 33.139 32.6986 33.139 33.8109C33.139 34.9364 33.3641 35.9329 33.8145 36.8002C34.2648 37.6675 34.8765 38.3395 35.6495 38.8162C36.4225 39.2929 37.2795 39.5312 38.2206 39.5312ZM38.9667 37.0882C38.4558 37.0882 37.9752 36.9558 37.5249 36.6909C37.0745 36.4261 36.7115 36.0454 36.4359 35.5489C36.1604 35.0523 36.0226 34.473 36.0226 33.8109C36.0226 33.1488 36.1604 32.5761 36.4359 32.0928C36.7115 31.6095 37.0711 31.2421 37.5148 30.9905C37.9584 30.7389 38.4424 30.6131 38.9667 30.6131C39.491 30.6131 39.9816 30.7422 40.4387 31.0004C40.8958 31.2586 41.2588 31.6294 41.5276 32.1127C41.7965 32.596 41.9309 33.1753 41.9309 33.8506C41.9309 34.526 41.7965 35.1053 41.5276 35.5886C41.2588 36.0719 40.8958 36.4427 40.4387 36.7009C39.9816 36.9591 39.491 37.0882 38.9667 37.0882Z" fill="white"/>
</g>
<defs>
<clipPath id="clip0_1_133">
<rect width="24" height="25" fill="white" transform="translate(20 20)"/>
</clipPath>
</defs>
</svg>
