<svg width="64" height="64" fill="none" xmlns="http://www.w3.org/2000/svg"><path fill="#0278ED" d="M0 0h64v64H0z"/><path d="M43.996 22.697c-.003-1.347-.785-2.025-2.166-1.99-.469.011-.572.19-.561.591.02.68.03 1.364-.006 2.044-.055 1.102-.73 1.787-1.858 1.874a12.48 12.48 0 0 1-1.798.002c-1.211-.08-1.89-.79-1.917-1.968a33.114 33.114 0 0 1 .003-1.968c.016-.42-.132-.572-.578-.57-2.088.02-4.175.02-6.26 0-.475-.005-.567.192-.553.59.023.68.02 1.363.003 2.043-.025 1.028-.64 1.728-1.694 1.844a11.51 11.51 0 0 1-1.954.03c-1.186-.068-1.847-.748-1.89-1.904a29.381 29.381 0 0 1 0-2.044c.018-.429-.155-.553-.59-.561-1.421-.03-2.175.659-2.175 2.063-.003 6.713-.003 13.425 0 20.139 0 1.447.645 2.081 2.138 2.084 6.575.005 13.148.005 19.723 0 1.505 0 2.133-.621 2.133-2.082.005-3.355 0-6.714 0-10.07.002-3.385.008-6.767 0-10.147ZM22.734 27.47c-.002-.351.154-.491.517-.491 1.535.008 3.07.008 4.602.002.33 0 .458.132.455.454a156.82 156.82 0 0 0 .003 3.623c.005.4-.218.445-.542.442-.753-.008-1.507-.002-2.263-.002-.754 0-1.51-.011-2.264.005-.365.008-.513-.127-.51-.483.014-1.185.01-2.368.002-3.55Zm5.58 14.335c.005.386-.126.54-.534.535a244.041 244.041 0 0 0-4.446 0c-.432.005-.608-.14-.602-.567.016-1.159.014-2.314.002-3.472-.002-.354.143-.494.508-.486.754.016 1.507.005 2.264.005.753 0 1.51.014 2.263-.005.397-.01.553.119.547.518-.022 1.158-.02 2.317-.003 3.472Zm-.631-4.873c-.729-.03-1.46-.008-2.191-.008-.704 0-1.41-.022-2.113.008-.458.019-.661-.102-.65-.586.025-1.133.022-2.27.003-3.407-.009-.437.175-.559.602-.553 1.46.019 2.922.027 4.382-.003.508-.01.609.19.6.624-.022 1.11-.03 2.222.003 3.331.011.48-.173.613-.636.594Zm2.07-9.95c1.488.007 2.976.01 4.463-.003.402-.003.556.14.55.531a111.68 111.68 0 0 0 0 3.483c.006.413-.184.516-.566.508-.757-.017-1.513-.006-2.27-.006-.73 0-1.462-.01-2.19.005-.369.009-.506-.126-.503-.485a150.72 150.72 0 0 0 0-3.559c-.005-.372.165-.477.517-.475Zm-.519 5.936c-.005-.384.12-.535.536-.53 1.485.02 2.97.017 4.457 0 .413-.005.545.15.539.532a145.197 145.197 0 0 0 0 3.48c.006.386-.131.54-.541.53-.757-.022-1.51-.006-2.267-.006-.703 0-1.406-.014-2.11.005-.407.014-.625-.07-.614-.531a96.111 96.111 0 0 0 0-3.48Zm5.538 8.817c.01.464-.165.615-.637.61-1.434-.022-2.869-.016-4.306-.003-.427.006-.608-.116-.597-.559a76.78 76.78 0 0 0 0-3.407c-.009-.431.15-.577.586-.561.728.024 1.46.008 2.19.008.704 0 1.41.019 2.113-.008.458-.016.659.108.648.588a66.308 66.308 0 0 0 .003 3.332Zm.91-14.22c-.006-.385.133-.542.54-.536 1.486.013 2.968.013 4.452 0 .419-.003.617.121.609.561-.02 1.158-.014 2.316-.003 3.475.003.356-.14.494-.508.485-.781-.013-1.563-.005-2.341-.005-.704 0-1.407-.019-2.108.008-.455.016-.656-.108-.642-.588a91.69 91.69 0 0 0 0-3.4Zm5.595 14.339c.003.364-.176.483-.525.483a655.305 655.305 0 0 0-4.607 0c-.33 0-.464-.138-.46-.456.008-1.21.01-2.417 0-3.626-.004-.402.24-.437.555-.435.753.006 1.51.003 2.263.003.754 0 1.51.01 2.264-.003.365-.008.513.127.507.486a215.14 215.14 0 0 0 .003 3.548Zm-.645-4.925c-.728-.027-1.456-.008-2.185-.008-.753 0-1.51-.013-2.263.003-.369.008-.508-.13-.503-.486.012-1.182.017-2.365-.002-3.547-.006-.413.184-.508.566-.505 1.482.013 2.964.016 4.446-.003.441-.005.597.14.589.564a81.117 81.117 0 0 0 .003 3.397c.014.49-.201.602-.65.585ZM25.64 24.298a1.824 1.824 0 0 0 1.727-1.741c.023-.478.003-.959.003-1.437 0-.453.017-.907-.003-1.36a1.815 1.815 0 0 0-1.71-1.755c-.941-.067-1.792.559-1.92 1.517a12.487 12.487 0 0 0-.003 3.242c.12.959.968 1.593 1.906 1.534Zm12.782.003c1.016.037 1.837-.73 1.91-1.812.027-.427.005-.856.005-1.285h-.003c0-.478.03-.961-.006-1.436-.08-1.037-.887-1.78-1.875-1.766-.991.014-1.786.775-1.825 1.812-.034.88-.031 1.765 0 2.645.033 1.048.792 1.804 1.794 1.841Z" fill="#fff"/></svg>