<svg width="64" height="64" fill="none" xmlns="http://www.w3.org/2000/svg"><path fill="#B25DF8" d="M0 0h64v64H0z"/><path d="M31.35 24h1.29c.078.017.154.043.234.048.933.072 1.838.283 2.712.604 3.098 1.146 5.627 3.085 7.713 5.616.948 1.15.926 2.32-.014 3.483-1.294 1.601-2.83 2.931-4.56 4.039-1.426.91-2.945 1.613-4.608 1.968-.487.103-.984.163-1.476.242H31.35c-.077-.017-.156-.043-.236-.048a9.874 9.874 0 0 1-2.354-.491c-3.29-1.115-5.932-3.14-8.123-5.791a2.662 2.662 0 0 1-.63-1.484c-.064-.803.286-1.455.778-2.05A19.143 19.143 0 0 1 25.4 26.12c1.457-.913 3.007-1.606 4.707-1.93.412-.079.828-.127 1.243-.189Zm-4.356 8.001c0 2.74 2.244 4.988 4.987 4.993 2.75.007 5.013-2.25 5.013-4.998 0-2.74-2.248-4.985-4.992-4.99A5.004 5.004 0 0 0 26.994 32Zm5.942-2.828c-.996.832-1.214 1.72-.629 2.567.59.853 1.479.951 2.667.297.122 1.021-.737 2.297-1.856 2.747a3.01 3.01 0 0 1-3.527-.987c-.821-1.105-.802-2.604.048-3.658.806-1.002 2.253-1.427 3.297-.966Z" fill="#fff"/></svg>