<svg width="64" height="64" fill="none" xmlns="http://www.w3.org/2000/svg"><path fill="#FF5437" d="M0 0h64v64H0z"/><path d="M43.604 22.34c-.12-.088-.26-.118-.396-.155h-18.38a2.456 2.456 0 0 1 .002 3.58c6.085-.003 12.17-.006 18.253-.006h.072a.779.779 0 0 0 .519-.192c.17-.14.261-.33.326-.537v-2.096a1.025 1.025 0 0 0-.396-.595Zm-19.807 1.634c0 1.091-.85 1.975-1.899 1.975-1.048 0-1.898-.884-1.898-1.975 0-1.09.85-1.974 1.898-1.974 1.05 0 1.899.884 1.899 1.974Zm19.411 3.565h-18.38c.474.444.776 1.079.776 1.79 0 .711-.302 1.348-.773 1.79 6.084-.003 12.168-.003 18.252-.003h.072a.781.781 0 0 0 .519-.194c.17-.14.261-.33.326-.537v-2.097a1.024 1.024 0 0 0-.396-.594c-.12-.085-.26-.117-.396-.155Zm-19.411 1.79c0 1.09-.85 1.977-1.899 1.977-1.048 0-1.898-.886-1.898-1.977 0-1.088.85-1.974 1.898-1.974 1.05 0 1.899.886 1.899 1.974Zm19.411 3.56h-18.38c.474.444.776 1.078.776 1.79 0 .71-.302 1.347-.773 1.79 6.084-.003 12.168-.003 18.252-.003h.072a.781.781 0 0 0 .519-.195c.17-.14.261-.33.326-.534v-2.1a1.025 1.025 0 0 0-.396-.594c-.12-.084-.26-.117-.396-.154Zm-19.411 1.79c0 1.09-.85 1.977-1.899 1.977-1.048 0-1.898-.887-1.898-1.977 0-1.089.85-1.975 1.898-1.975 1.05 0 1.899.886 1.899 1.974Zm19.411 3.557h-18.38a2.456 2.456 0 0 1 .002 3.58c6.085-.003 12.17-.006 18.253-.006h.072a.767.767 0 0 0 .519-.192c.17-.14.261-.33.326-.537v-2.097a1.025 1.025 0 0 0-.396-.594c-.12-.087-.26-.117-.396-.154Zm-19.411 1.79c0 1.09-.85 1.974-1.899 1.974C20.85 42 20 41.116 20 40.026c0-1.091.85-1.975 1.898-1.975 1.05 0 1.899.884 1.899 1.974Z" fill="#fff"/></svg>