<svg width="120" height="126" fill="none" xmlns="http://www.w3.org/2000/svg"><path fill-rule="evenodd" clip-rule="evenodd" d="M44.713 0h32.38c7.412 0 10.1.77 12.81 2.219a15.116 15.116 0 0 1 6.286 6.28c1.449 2.707 2.22 5.393 2.22 12.8V53.65c0 7.407-.772 10.091-2.22 12.8a15.116 15.116 0 0 1-6.286 6.28c-2.71 1.448-5.398 2.218-12.81 2.218h-32.38c-7.413 0-10.1-.77-12.81-2.218a15.113 15.113 0 0 1-6.285-6.28c-1.45-2.709-2.221-5.393-2.221-12.8V21.298c0-7.406.771-10.092 2.221-12.799a15.113 15.113 0 0 1 6.285-6.28C34.613.77 37.3 0 44.713 0Z" fill="url(#a)"/><path opacity=".9" fill-rule="evenodd" clip-rule="evenodd" d="M51.987 19.986v.406l-.416.415c-2.056 2.099-3.636 4.58-4.742 7.448a26.046 26.046 0 0 0-1.77 9.454c0 3.162.558 6.214 1.677 9.158 1.119 2.943 2.716 5.496 4.79 7.659v.437h-4.344l-.367-.374c-1.816-1.895-3.238-4.268-4.267-7.114-1.1-3.038-1.648-6.293-1.648-9.766 0-3.557.575-6.901 1.724-10.032 1.15-3.13 2.824-5.693 5.02-7.69h4.343Zm22.175 0 .406.381c1.998 1.939 3.536 4.376 4.613 7.31 1.15 3.13 1.726 6.475 1.726 10.032 0 3.473-.55 6.728-1.648 9.766-1.1 3.037-2.644 5.533-4.636 7.488h-4.342v-.438l.408-.437c1.876-2.067 3.337-4.474 4.38-7.221a25.536 25.536 0 0 0 1.68-9.158c0-3.245-.59-6.397-1.77-9.455-1.182-3.057-2.901-5.678-5.16-7.862v-.406h4.343Zm-17.863 7.052v8.954h9.208v-8.954h4.313v21.778h-4.313v-9.267h-9.208v9.267h-4.312V27.038h4.312Z" fill="#fff"/><path fill-rule="evenodd" clip-rule="evenodd" d="M62.433 99.96c1.486 0 2.83.368 4.034 1.102 1.204.735 2.157 1.78 2.858 3.134.7 1.353 1.05 2.922 1.05 4.707 0 1.783-.35 3.363-1.05 4.738-.701 1.376-1.654 2.441-2.858 3.197-1.204.755-2.548 1.133-4.034 1.133-1.277 0-2.402-.262-3.376-.788-.863-.465-1.584-1.04-2.16-1.722l-.21-.261V126h-4.395v-25.756h4.396v2.519l.196-.261c.545-.683 1.26-1.263 2.143-1.739.995-.535 2.129-.802 3.406-.802Zm21.285 0c1.486 0 2.83.368 4.034 1.102 1.204.735 2.156 1.78 2.857 3.134.7 1.353 1.052 2.922 1.052 4.707 0 1.783-.351 3.363-1.052 4.738-.701 1.376-1.653 2.441-2.857 3.197-1.203.755-2.548 1.133-4.034 1.133-1.276 0-2.401-.262-3.374-.788-.866-.465-1.586-1.04-2.162-1.722l-.21-.261V126H73.58v-25.756h4.394v2.519l.196-.261c.545-.683 1.258-1.263 2.142-1.739.995-.535 2.13-.802 3.407-.802Zm22.564.284 4.489 12.185 4.551-12.185H120l-10.768 25.694h-4.677l3.767-8.691-6.969-17.003h4.929Zm-73.52-11.65v.409l-.426.418c-2.093 2.119-3.705 4.624-4.833 7.517a26.04 26.04 0 0 0-1.806 9.54c0 3.191.57 6.272 1.713 9.242 1.14 2.97 2.766 5.546 4.88 7.73v.441h-4.426l-.355-.355c-1.859-1.917-3.317-4.318-4.37-7.203-1.12-3.064-1.679-6.35-1.679-9.855 0-3.589.585-6.964 1.757-10.123 1.172-3.16 2.878-5.746 5.118-7.761h4.426Zm60.442 0 .389.361c2.048 1.96 3.625 4.427 4.728 7.4 1.172 3.16 1.758 6.534 1.758 10.123 0 3.505-.561 6.791-1.68 9.855-1.12 3.065-2.694 5.585-4.725 7.558h-4.427v-.441l.392-.414c1.925-2.094 3.421-4.532 4.491-7.316a25.587 25.587 0 0 0 1.71-9.242 26.04 26.04 0 0 0-1.804-9.54c-1.204-3.086-2.956-5.73-5.26-7.935v-.41h4.428ZM37.82 99.96c1.297 0 2.432.262 3.406.786.864.467 1.576 1.041 2.136 1.723l.202.261v-2.487h4.427v17.444h-4.427v-2.551l-.196.268c-.544.699-1.259 1.287-2.142 1.763-.995.536-2.14.803-3.439.803-1.463 0-2.8-.378-4.002-1.133-1.203-.756-2.156-1.821-2.857-3.197-.701-1.375-1.051-2.955-1.051-4.738 0-1.764.35-3.327 1.05-4.692.702-1.364 1.655-2.414 2.858-3.149 1.203-.734 2.548-1.101 4.035-1.101ZM4.395 95.71v9.036h9.386V95.71h4.395v21.978h-4.395v-9.352H4.395v9.352H0V95.71h4.395Zm34.556 8.124a4.44 4.44 0 0 0-2.26.597c-.692.399-1.251.982-1.681 1.748-.428.766-.643 1.673-.643 2.724 0 1.05.215 1.968.643 2.755.43.787.995 1.39 1.696 1.811.7.419 1.45.629 2.245.629.815 0 1.58-.204 2.29-.614.712-.41 1.278-.997 1.696-1.763.418-.766.628-1.684.628-2.756 0-1.07-.21-1.989-.628-2.754-.418-.766-.984-1.355-1.696-1.764a4.515 4.515 0 0 0-2.29-.613Zm22.32 0a4.38 4.38 0 0 0-2.244.613c-.7.409-1.266 1.002-1.696 1.78-.43.776-.643 1.689-.643 2.738 0 1.051.214 1.964.643 2.74.43.777.995 1.369 1.696 1.779.701.41 1.45.614 2.244.614.817 0 1.575-.21 2.276-.629.702-.421 1.267-1.019 1.696-1.796.429-.776.643-1.7.643-2.77 0-1.051-.214-1.958-.643-2.724-.429-.766-.994-1.349-1.696-1.748a4.52 4.52 0 0 0-2.276-.597Zm21.285 0c-.795 0-1.544.204-2.245.613-.7.409-1.265 1.002-1.695 1.78-.428.776-.643 1.689-.643 2.738 0 1.051.215 1.964.643 2.74.43.777.994 1.369 1.695 1.779.701.41 1.45.614 2.245.614a4.36 4.36 0 0 0 2.277-.629c.7-.421 1.266-1.019 1.695-1.796.43-.776.644-1.7.644-2.77 0-1.051-.215-1.958-.644-2.724-.429-.766-.994-1.349-1.695-1.748a4.524 4.524 0 0 0-2.277-.597Z" fill="#222"/><defs><linearGradient id="a" x1="21.441" y1="-2.701" x2="98.346" y2="72.74" gradientUnits="userSpaceOnUse"><stop stop-color="#D140F8"/><stop offset=".365" stop-color="#788CE9"/><stop offset=".684" stop-color="#37C2DE"/><stop offset="1" stop-color="#1ECCAE"/></linearGradient></defs></svg>