<svg width="120" height="40" fill="none" xmlns="http://www.w3.org/2000/svg"><path fill-rule="evenodd" clip-rule="evenodd" d="M11.35 0h17.24c3.947 0 5.378.411 6.82 1.184a8.058 8.058 0 0 1 3.347 3.352c.772 1.445 1.182 2.878 1.182 6.83v17.267c0 3.953-.41 5.386-1.182 6.831a8.057 8.057 0 0 1-3.347 3.352C33.968 39.589 32.537 40 28.59 40H11.35c-3.947 0-5.378-.411-6.82-1.184a8.056 8.056 0 0 1-3.347-3.352C.41 34.019 0 32.586 0 28.634V11.366C0 7.414.41 5.98 1.183 4.536a8.056 8.056 0 0 1 3.346-3.352C5.972.411 7.403 0 11.35 0Z" fill="url(#a)"/><path opacity=".9" fill-rule="evenodd" clip-rule="evenodd" d="M15.223 10.667v.216l-.222.222c-1.095 1.12-1.936 2.444-2.525 3.974a13.928 13.928 0 0 0-.943 5.046c0 1.688.298 3.316.894 4.888.596 1.57 1.446 2.933 2.55 4.087v.233h-2.313l-.195-.199c-.967-1.011-1.724-2.278-2.272-3.797-.585-1.621-.878-3.358-.878-5.212 0-1.898.307-3.683.918-5.354.613-1.67 1.504-3.038 2.674-4.104h2.312Zm11.806 0 .217.203c1.063 1.035 1.882 2.335 2.456 3.901.612 1.671.918 3.456.918 5.354 0 1.854-.292 3.591-.877 5.212-.585 1.621-1.408 2.953-2.468 3.996h-2.312V29.1l.217-.233c1-1.104 1.777-2.388 2.332-3.854.597-1.572.895-3.2.895-4.888 0-1.732-.315-3.414-.943-5.046-.63-1.632-1.544-3.03-2.747-4.196v-.216h2.312Zm-9.51 3.763v4.779h4.902V14.43h2.296v11.623h-2.296v-4.946h-4.903v4.946h-2.296V14.43h2.296Z" fill="#fff"/><path fill-rule="evenodd" clip-rule="evenodd" d="M85.832 16.306c.882 0 1.68.216 2.394.648.715.432 1.28 1.046 1.696 1.842.416.796.624 1.719.624 2.769 0 1.049-.208 1.978-.624 2.787-.416.809-.981 1.435-1.696 1.88a4.446 4.446 0 0 1-2.394.666c-.758 0-1.426-.154-2.004-.463a4.37 4.37 0 0 1-1.282-1.013l-.124-.154v6.352h-2.609V16.472h2.609v1.482l.116-.154a4.053 4.053 0 0 1 1.272-1.022c.59-.315 1.264-.472 2.022-.472Zm12.633 0c.882 0 1.68.216 2.395.648.714.432 1.279 1.046 1.695 1.842.416.796.625 1.719.625 2.769 0 1.049-.209 1.978-.625 2.787-.416.809-.981 1.435-1.695 1.88a4.447 4.447 0 0 1-2.395.666c-.757 0-1.425-.154-2.003-.463a4.343 4.343 0 0 1-1.282-1.013l-.125-.154v6.352h-2.608V16.472h2.608v1.482l.117-.154a4.05 4.05 0 0 1 1.271-1.022c.59-.315 1.265-.472 2.022-.472Zm13.393.166 2.664 7.167 2.702-7.167H120l-6.391 15.112h-2.776l2.236-5.112-4.137-10h2.926ZM68.221 9.62v.241l-.253.246c-1.243 1.246-2.2 2.72-2.869 4.42a15.192 15.192 0 0 0-1.071 5.612 14.9 14.9 0 0 0 1.016 5.435c.676 1.747 1.642 3.262 2.897 4.546v.26h-2.627l-.21-.209c-1.104-1.127-1.97-2.54-2.595-4.236-.664-1.802-.996-3.735-.996-5.796 0-2.111.347-4.096 1.043-5.954.695-1.858 1.708-3.38 3.037-4.565h2.628Zm35.874 0 .231.213c1.216 1.153 2.152 2.603 2.807 4.352.695 1.858 1.043 3.843 1.043 5.954 0 2.061-.333 3.994-.997 5.796-.665 1.803-1.599 3.285-2.805 4.445h-2.627v-.26l.232-.243c1.143-1.231 2.031-2.665 2.666-4.303a14.912 14.912 0 0 0 1.015-5.435c0-1.926-.356-3.797-1.071-5.611-.715-1.815-1.754-3.37-3.122-4.667v-.24h2.628Zm-32.872 6.686c.77 0 1.444.154 2.022.462.513.275.936.612 1.268 1.014l.12.153v-1.463h2.627v10.26h-2.627v-1.5l-.117.157a3.951 3.951 0 0 1-1.271 1.037c-.59.315-1.27.472-2.041.472a4.409 4.409 0 0 1-2.375-.666c-.714-.445-1.28-1.071-1.696-1.88-.416-.809-.624-1.738-.624-2.787 0-1.037.208-1.957.624-2.76.416-.802.982-1.42 1.696-1.851.714-.432 1.512-.648 2.394-.648Zm-19.839-2.5v5.314h5.571v-5.314h2.609v12.926h-2.609v-5.5h-5.57v5.5h-2.61V13.806h2.61Zm20.51 4.778c-.484 0-.932.116-1.342.351a2.66 2.66 0 0 0-.997 1.028c-.254.45-.381.984-.381 1.602 0 .617.127 1.157.381 1.62.255.463.59.818 1.007 1.065.416.247.86.37 1.332.37.484 0 .938-.12 1.36-.361.422-.24.758-.586 1.006-1.037.248-.45.373-.99.373-1.62 0-.63-.125-1.17-.373-1.62a2.616 2.616 0 0 0-1.006-1.038 2.698 2.698 0 0 0-1.36-.36Zm13.248 0c-.472 0-.916.12-1.332.36-.416.241-.751.59-1.006 1.047-.255.457-.382.993-.382 1.61 0 .619.127 1.155.382 1.612.255.457.59.805 1.006 1.046.416.241.86.361 1.332.361a2.6 2.6 0 0 0 1.35-.37c.417-.247.753-.599 1.007-1.056.255-.456.382-1 .382-1.629 0-.618-.127-1.151-.382-1.602a2.632 2.632 0 0 0-1.006-1.028 2.702 2.702 0 0 0-1.35-.351Zm12.634 0c-.472 0-.917.12-1.333.36-.416.241-.75.59-1.006 1.047-.254.457-.382.993-.382 1.61 0 .619.128 1.155.382 1.612.255.457.59.805 1.006 1.046.416.241.86.361 1.333.361.484 0 .935-.123 1.351-.37a2.76 2.76 0 0 0 1.006-1.056c.255-.456.383-1 .383-1.629 0-.618-.128-1.151-.383-1.602a2.636 2.636 0 0 0-1.006-1.028 2.704 2.704 0 0 0-1.351-.351Z" fill="#222"/><defs><linearGradient id="a" x1="-.978" y1="-1.511" x2="39.94" y2="38.785" gradientUnits="userSpaceOnUse"><stop stop-color="#D140F8"/><stop offset=".365" stop-color="#788CE9"/><stop offset=".684" stop-color="#37C2DE"/><stop offset="1" stop-color="#1ECCAE"/></linearGradient></defs></svg>