<svg width="192" height="64" fill="none" xmlns="http://www.w3.org/2000/svg"><path fill-rule="evenodd" clip-rule="evenodd" d="M18.16 0h27.584c6.315 0 8.605.658 10.912 1.894a12.892 12.892 0 0 1 5.355 5.364c1.235 2.311 1.892 4.604 1.892 10.929v27.626c0 6.325-.657 8.617-1.892 10.93a12.892 12.892 0 0 1-5.355 5.363C54.35 63.342 52.06 64 45.744 64H18.159c-6.315 0-8.604-.658-10.912-1.894a12.89 12.89 0 0 1-5.354-5.364C.657 54.43 0 52.138 0 45.813V18.187c0-6.325.657-8.618 1.893-10.93a12.89 12.89 0 0 1 5.354-5.363C9.555.658 11.844 0 18.159 0Z" fill="url(#a)"/><path opacity=".9" fill-rule="evenodd" clip-rule="evenodd" d="M24.356 17.067v.346l-.355.354c-1.75 1.793-3.097 3.912-4.04 6.36a22.286 22.286 0 0 0-1.508 8.073c0 2.7.477 5.306 1.43 7.82.953 2.513 2.313 4.694 4.08 6.54v.373h-3.7l-.313-.319c-1.547-1.618-2.759-3.644-3.635-6.074-.936-2.594-1.404-5.374-1.404-8.34 0-3.037.49-5.893 1.469-8.566.98-2.673 2.406-4.862 4.277-6.567h3.699Zm18.89 0 .347.325c1.702 1.655 3.012 3.736 3.93 6.242.98 2.673 1.47 5.529 1.47 8.566 0 2.966-.469 5.746-1.404 8.34-.936 2.593-2.253 4.724-3.95 6.393h-3.698v-.373l.347-.373c1.599-1.766 2.843-3.821 3.732-6.167a21.851 21.851 0 0 0 1.43-7.82c0-2.77-.502-5.462-1.508-8.073-1.006-2.611-2.47-4.85-4.394-6.714v-.346h3.699ZM28.03 23.088v7.646h7.845v-7.646h3.674v18.596h-3.675v-7.912H28.03v7.912h-3.673V23.088h3.673Z" fill="#fff"/><path fill-rule="evenodd" clip-rule="evenodd" d="M137.331 26.09c1.411 0 2.687.345 3.831 1.036 1.143.691 2.048 1.674 2.714 2.948.665 1.274.998 2.75.998 4.43 0 1.678-.333 3.165-.998 4.459-.666 1.295-1.571 2.296-2.714 3.008-1.144.71-2.42 1.066-3.831 1.066-1.213 0-2.281-.246-3.206-.741-.82-.438-1.505-.98-2.052-1.621l-.198-.246v10.163h-4.174V26.357h4.174v2.37l.186-.245c.518-.644 1.196-1.189 2.035-1.637.945-.503 2.022-.755 3.235-.755Zm20.214 0c1.411 0 2.688.345 3.831 1.036 1.142.691 2.047 1.674 2.712 2.948.666 1.274.999 2.75.999 4.43 0 1.678-.333 3.165-.999 4.459-.665 1.295-1.57 2.296-2.712 3.008-1.143.71-2.42 1.066-3.831 1.066-1.212 0-2.281-.246-3.205-.741-.822-.438-1.506-.98-2.053-1.621l-.199-.246v10.163h-4.173V26.357h4.173v2.37l.187-.245c.517-.644 1.195-1.189 2.034-1.637.945-.503 2.024-.755 3.236-.755Zm21.427.266 4.264 11.466 4.322-11.466H192l-10.226 24.178h-4.442l3.578-8.178-6.619-16h4.681Zm-69.819-10.964v.386l-.404.393c-1.988 1.994-3.519 4.351-4.59 7.073a24.305 24.305 0 0 0-1.715 8.978c0 3.003.542 5.902 1.626 8.697 1.083 2.795 2.628 5.22 4.636 7.274v.415h-4.204l-.337-.334c-1.766-1.804-3.15-4.063-4.15-6.778-1.063-2.883-1.595-5.976-1.595-9.274 0-3.378.556-6.553 1.669-9.526s2.733-5.407 4.86-7.304h4.204Zm57.4 0 .369.34c1.945 1.845 3.443 4.166 4.491 6.964 1.113 2.973 1.669 6.148 1.669 9.526 0 3.298-.533 6.39-1.596 9.274-1.063 2.884-2.558 5.255-4.487 7.111h-4.204v-.414l.372-.39c1.829-1.97 3.249-4.264 4.265-6.884a23.865 23.865 0 0 0 1.625-8.697c0-3.081-.571-6.074-1.714-8.978-1.144-2.903-2.807-5.392-4.995-7.466v-.386h4.205ZM113.957 26.09c1.233 0 2.31.247 3.235.74.821.44 1.497.98 2.029 1.622l.192.245v-2.34h4.203V42.77h-4.203v-2.4l-.187.251c-.516.659-1.195 1.211-2.034 1.66-.945.504-2.032.755-3.266.755-1.389 0-2.658-.356-3.8-1.066-1.142-.712-2.048-1.713-2.713-3.008-.666-1.294-.998-2.781-.998-4.459 0-1.66.332-3.13.998-4.415.665-1.284 1.571-2.272 2.713-2.963 1.142-.691 2.42-1.037 3.831-1.037Zm-31.742-4v8.504h8.913v-8.504h4.174v20.682h-4.174v-8.8h-8.913v8.8H78.04V22.089h4.174Zm32.816 7.645c-.775 0-1.491.186-2.147.562-.656.376-1.188.924-1.596 1.645-.407.72-.61 1.574-.61 2.563 0 .988.203 1.852.61 2.592.408.741.945 1.309 1.611 1.705a4.111 4.111 0 0 0 2.132.591c.774 0 1.501-.192 2.175-.578a4.182 4.182 0 0 0 1.61-1.658c.397-.721.597-1.585.597-2.593 0-1.007-.2-1.872-.597-2.592a4.185 4.185 0 0 0-1.61-1.66 4.318 4.318 0 0 0-2.175-.577Zm21.197 0a4.19 4.19 0 0 0-2.132.577c-.665.385-1.202.943-1.61 1.675-.408.73-.611 1.589-.611 2.577s.203 1.847.611 2.578c.408.73.945 1.288 1.61 1.673a4.18 4.18 0 0 0 2.132.578c.775 0 1.495-.197 2.161-.592.666-.395 1.203-.958 1.61-1.69.408-.73.611-1.6.611-2.606 0-.989-.203-1.842-.611-2.563-.407-.721-.944-1.27-1.61-1.645a4.325 4.325 0 0 0-2.161-.562Zm20.213 0c-.755 0-1.466.192-2.132.577-.666.385-1.201.943-1.609 1.675-.407.73-.612 1.589-.612 2.577s.205 1.847.612 2.578c.408.73.943 1.288 1.609 1.673a4.182 4.182 0 0 0 2.132.578c.776 0 1.497-.197 2.162-.592.666-.395 1.203-.958 1.61-1.69.407-.73.612-1.6.612-2.606 0-.989-.205-1.842-.612-2.563-.407-.721-.944-1.27-1.61-1.645a4.324 4.324 0 0 0-2.162-.562Z" fill="#222"/><defs><linearGradient id="a" x1="-1.565" y1="-2.418" x2="63.904" y2="62.056" gradientUnits="userSpaceOnUse"><stop stop-color="#D140F8"/><stop offset=".365" stop-color="#788CE9"/><stop offset=".684" stop-color="#37C2DE"/><stop offset="1" stop-color="#1ECCAE"/></linearGradient></defs></svg>